<svg width="35" height="35" viewBox="0 0 35 35" fill="none" xmlns="http://www.w3.org/2000/svg">
<g clip-path="url(#clip0)">
<path d="M29.6289 6.55083C27.3977 5.54458 25.006 4.80083 22.505 4.37792C22.4827 4.37364 22.4596 4.3764 22.439 4.3858C22.4184 4.39521 22.4011 4.4108 22.3898 4.43042C22.0835 4.96854 21.7423 5.67 21.5031 6.22417C18.8505 5.82785 16.1538 5.82785 13.5012 6.22417C13.2348 5.61001 12.9344 5.01116 12.6014 4.43042C12.5901 4.41056 12.5731 4.39462 12.5525 4.38471C12.5319 4.37481 12.5088 4.37142 12.4862 4.375C9.98664 4.79792 7.59497 5.54167 5.36226 6.54938C5.34305 6.55743 5.32677 6.57117 5.31559 6.58875C0.77726 13.2606 -0.466698 19.7677 0.144343 26.1931C0.146044 26.2089 0.150929 26.2241 0.158701 26.2379C0.166473 26.2517 0.176969 26.2637 0.189552 26.2733C2.83846 28.2019 5.79296 29.671 8.92934 30.6192C8.95121 30.6259 8.97459 30.6259 8.99645 30.6191C9.0183 30.6123 9.03761 30.5992 9.05184 30.5812C9.72559 29.6771 10.3264 28.7219 10.8398 27.7185C10.8704 27.6602 10.8412 27.5902 10.78 27.5669C9.83789 27.2121 8.92509 26.784 8.04997 26.2865C8.03424 26.2775 8.02099 26.2647 8.01141 26.2494C8.00182 26.234 7.99619 26.2165 7.99504 26.1985C7.99388 26.1804 7.99723 26.1623 8.00478 26.1459C8.01233 26.1294 8.02385 26.1151 8.0383 26.1042C8.22205 25.9685 8.4058 25.8271 8.5808 25.6856C8.59655 25.6729 8.61553 25.6648 8.63561 25.6622C8.6557 25.6597 8.6761 25.6627 8.69455 25.671C14.4214 28.2435 20.6237 28.2435 26.2835 25.671C26.302 25.6622 26.3226 25.6588 26.343 25.6611C26.3634 25.6634 26.3827 25.6714 26.3987 25.6842C26.5737 25.8271 26.756 25.9685 26.9412 26.1042C26.9558 26.1148 26.9675 26.129 26.9753 26.1453C26.9831 26.1616 26.9867 26.1796 26.9859 26.1977C26.985 26.2157 26.9797 26.2333 26.9703 26.2488C26.961 26.2643 26.948 26.2772 26.9325 26.2865C26.0604 26.7881 25.1533 27.2125 24.201 27.5654C24.1864 27.5707 24.1731 27.5791 24.1619 27.59C24.1508 27.6008 24.1421 27.614 24.1364 27.6284C24.1308 27.6429 24.1283 27.6585 24.1291 27.674C24.1299 27.6895 24.1341 27.7047 24.1412 27.7185C24.6662 28.7204 25.2671 29.6742 25.9277 30.5798C25.9414 30.5984 25.9605 30.6123 25.9825 30.6196C26.0044 30.6269 26.028 30.6272 26.0502 30.6206C29.1919 29.6751 32.1513 28.2053 34.8031 26.2733C34.816 26.2643 34.8269 26.2526 34.8349 26.239C34.843 26.2254 34.848 26.2103 34.8498 26.1946C35.5789 18.7658 33.6277 12.3113 29.6741 6.59167C29.6644 6.57308 29.6484 6.55859 29.6289 6.55083ZM11.6958 22.2804C9.97205 22.2804 8.55018 20.7215 8.55018 18.8096C8.55018 16.8962 9.94434 15.3387 11.6958 15.3387C13.4604 15.3387 14.8691 16.9094 14.8414 18.8096C14.8414 20.7229 13.4473 22.2804 11.6958 22.2804ZM23.326 22.2804C21.6008 22.2804 20.1804 20.7215 20.1804 18.8096C20.1804 16.8962 21.5731 15.3387 23.326 15.3387C25.0906 15.3387 26.4993 16.9094 26.4716 18.8096C26.4716 20.7229 25.0921 22.2804 23.326 22.2804Z" fill="white"/>
</g>
<defs>
<clipPath id="clip0">
<rect width="35" height="35" fill="white"/>
</clipPath>
</defs>
</svg>
