<svg width="35" height="35" viewBox="0 0 35 35" fill="none" xmlns="http://www.w3.org/2000/svg">
<path d="M4.375 27.7083V7.29167C4.375 6.51812 4.68229 5.77625 5.22927 5.22927C5.77625 4.68229 6.51812 4.375 7.29167 4.375H27.7083C28.4819 4.375 29.2237 4.68229 29.7707 5.22927C30.3177 5.77625 30.625 6.51812 30.625 7.29167V27.7083C30.625 28.4819 30.3177 29.2237 29.7707 29.7707C29.2237 30.3177 28.4819 30.625 27.7083 30.625H7.29167C6.51812 30.625 5.77625 30.3177 5.22927 29.7707C4.68229 29.2237 4.375 28.4819 4.375 27.7083ZM24.7917 17.5L17.5 10.2083V14.5833H11.6667V20.4167H17.5V24.7917L24.7917 17.5Z" fill="white"/>
</svg>
